# xmcd
#
# Track frame offsets:
#	180
#	20491
#	45598
#	70822
#	87165
#	110519
#	128977
#	143148
#	173759
#	186990
#	205236
#	242771
#
# Disc length: 3527 seconds
#
# Revision: 1
# Processed by: cddbd v1.5.2PL0 Copyright (c) Steve Scherf et al.
# Submitted via: audiograbber 1.83.01
#
DISCID=a70dc50c
DTITLE=Blues Clinic - Loos'n up
DYEAR=1995
DGENRE=Blues
TTITLE0=Born in Georgia (T. Ellis)
TTITLE1=You was wrong (F. King)
TTITLE2=All Blues (M. Davis)
TTITLE3=Loosen up (A. v.d. Broek)
TTITLE4=It hurts me too (T. Red)
TTITLE5=Bye bye baby (S. Terry, B. McGee)
TTITLE6=I can't be satisfied (M. Waters)
TTITLE7=Deadman's road (T. Gerrits, A v.d. Broek)
TTITLE8=Hard to change (T. Gerrits, A. v.d. Broek)
TTITLE9=Highway 61 (B. Dylan)
TTITLE10=No more free rides (L. Garner)
TTITLE11=Change is (S. Vaughan)
EXTD=
EXTT0=
EXTT1=
EXTT2=
EXTT3=
EXTT4=
EXTT5=
EXTT6=
EXTT7=
EXTT8=
EXTT9=
EXTT10=
EXTT11=
PLAYORDER=
